<svg version="1.0"
    xmlns="http://www.w3.org/2000/svg" width="120pt" height="60pt" viewBox="0 0 891.000000 200.000000" preserveAspectRatio="xMidYMid meet">
    <metadata>
    </metadata>
    <style >
        <!-- path{
            fill: #0056D2;
        } -->

    @media (prefers-color-scheme: dark) {
      path {
        fill: #000000;         <!-- set icon color for dark mode -->
        opacity: 0.5;
      }
    }

    </style>
    <g transform="translate(0.000000,200.000000) scale(0.100000,-0.100000)" fill="#000000" stroke="none">
        <path d="M460 1531 c-147 -47 -259 -143 -329 -278 -85 -168 -65 -402 48 -555
118 -158 282 -237 471 -225 144 10 249 57 351 158 115 113 168 258 156 423
-16 225 -170 416 -386 480 -75 22 -238 21 -311 -3z m44 -110 c-78 -47 -121
-139 -111 -235 9 -88 60 -160 136 -192 53 -23 160 -14 206 17 97 66 131 209
76 317 -20 40 -83 102 -103 102 -6 0 -9 3 -6 6 10 9 48 -15 99 -63 167 -156
45 -433 -191 -433 -189 0 -322 190 -248 351 28 61 66 102 118 130 46 24 64 24
24 0z m140 -15 c94 -39 101 -157 12 -200 -42 -20 -50 -20 -92 0 -88 42 -82
160 10 200 38 16 31 16 70 0z m346 -162 c74 -199 -14 -415 -208 -507 -61 -29
-76 -32 -162 -32 -87 0 -101 3 -161 32 -80 40 -159 120 -197 200 -24 52 -27
70 -27 163 0 80 5 113 18 140 9 19 14 26 10 15 -3 -11 -8 -59 -11 -107 -4 -82
-2 -92 27 -153 37 -79 96 -140 176 -180 54 -27 69 -29 160 -30 91 0 106 3 165
31 79 38 140 97 177 172 25 50 28 68 28 152 0 77 -4 105 -22 145 -13 28 -16
41 -8 31 8 -11 24 -43 35 -72z"/>
        <path d="M6400 1410 c-20 -20 -27 -74 -12 -96 11 -16 48 -34 71 -34 57 0 86
102 39 134 -31 22 -74 20 -98 -4z"/>
        <path d="M1340 1031 l0 -331 147 0 c173 0 237 14 308 68 145 111 160 358 30
497 -19 20 -60 48 -92 63 -55 25 -68 27 -225 30 l-168 4 0 -331z m299 219 c58
-16 100 -52 128 -108 23 -47 25 -61 21 -132 -4 -65 -10 -86 -32 -120 -41 -62
-108 -90 -213 -90 l-83 0 0 230 0 230 73 0 c39 0 87 -4 106 -10z"/>
        <path d="M3800 1030 l0 -330 168 0 167 0 -3 50 -4 50 -104 0 -104 0 -2 278 -3
277 -57 3 -58 3 0 -331z"/>
        <path d="M8228 1288 c-15 -40 -64 -179 -111 -308 -46 -129 -88 -245 -92 -258
-7 -23 -5 -23 56 -20 l63 3 21 60 22 60 132 0 133 0 23 -60 22 -60 61 -3 c66
-3 69 -1 51 45 -22 57 -113 310 -194 543 l-22 65 -70 3 -69 3 -26 -73z m187
-348 c4 -6 -29 -10 -89 -10 -53 0 -96 4 -96 8 0 7 66 199 86 252 3 8 25 -42
49 -113 24 -70 47 -132 50 -137z"/>
        <path d="M8710 1030 l0 -330 60 0 60 0 0 330 0 330 -60 0 -60 0 0 -330z"/>
        <path d="M2179 1230 c-130 -22 -205 -121 -203 -270 0 -90 23 -149 79 -203 93
-91 274 -88 368 6 20 20 57 78 57 90 0 4 -28 7 -63 7 -57 0 -66 -3 -91 -29
-55 -58 -163 -45 -206 24 -41 66 -42 65 176 65 l197 0 -5 73 c-11 172 -135
267 -309 237z m122 -115 c27 -14 69 -68 69 -87 0 -5 -61 -8 -136 -8 l-135 0 6
23 c9 28 44 67 70 77 33 14 94 11 126 -5z"/>
        <path d="M2751 1230 c-56 -12 -124 -52 -151 -89 -92 -130 -54 -341 74 -416 55
-32 155 -43 220 -25 55 15 120 69 147 121 l19 39 -64 0 c-58 0 -67 -3 -94 -29
-40 -41 -88 -48 -146 -22 -37 16 -51 29 -66 63 l-19 43 201 3 201 2 -6 76 c-4
55 -12 86 -31 118 -55 93 -168 139 -285 116z m125 -116 c40 -19 50 -31 59 -67
l7 -27 -131 0 c-146 0 -152 3 -104 60 43 52 105 64 169 34z"/>
        <path d="M3389 1227 c-25 -7 -60 -23 -77 -36 l-32 -22 0 30 0 31 -60 0 -60 0
0 -390 0 -390 60 0 60 0 0 156 0 155 33 -24 c103 -78 253 -56 332 48 40 51 54
100 54 185 1 58 -4 86 -23 125 -50 108 -172 164 -287 132z m105 -117 c57 -28
79 -63 84 -130 8 -104 -54 -180 -146 -180 -24 0 -53 5 -65 11 -46 25 -87 97
-87 153 0 46 39 117 79 143 42 28 82 29 135 3z"/>
        <path d="M4383 1230 c-140 -28 -211 -132 -201 -293 6 -84 30 -139 81 -184 118
-103 335 -72 403 59 23 44 18 48 -47 48 -53 0 -64 -3 -80 -24 -53 -67 -171
-53 -219 27 -35 57 -37 56 178 59 l197 3 -2 62 c-4 167 -143 276 -310 243z
m140 -126 c24 -18 47 -54 47 -74 0 -6 -56 -10 -135 -10 l-135 0 20 40 c11 22
32 46 48 55 36 21 120 15 155 -11z"/>
        <path d="M4951 1229 c-161 -31 -246 -227 -172 -394 23 -52 99 -121 147 -134
81 -23 160 -10 222 36 l32 24 0 -30 0 -31 60 0 60 0 0 265 0 265 -60 0 -60 0
0 -30 0 -30 -37 24 c-21 14 -58 30 -83 35 -51 12 -49 12 -109 0z m157 -127
c39 -29 64 -83 64 -142 -1 -92 -52 -151 -134 -158 -63 -5 -109 21 -139 78 -24
44 -25 124 -1 170 37 74 142 100 210 52z"/>
        <path d="M5665 1235 c-5 -2 -22 -6 -37 -9 -14 -3 -40 -18 -57 -32 l-31 -26 0
32 0 31 -57 -3 -58 -3 -3 -262 -2 -263 60 0 60 0 0 143 c1 219 16 256 109 265
l51 5 0 63 c0 63 -4 69 -35 59z"/>
        <path d="M5996 1229 c-21 -5 -51 -18 -67 -30 l-29 -20 0 26 c0 25 -1 26 -57
23 l-58 -3 -3 -262 -2 -263 59 0 59 0 4 173 c4 188 8 205 61 237 39 24 78 25
122 4 54 -25 65 -68 65 -254 l0 -160 60 0 61 0 -1 178 c-2 183 -10 230 -48
281 -42 57 -146 89 -226 70z"/>
        <path d="M6855 1231 c-16 -4 -45 -15 -62 -25 -32 -16 -33 -16 -33 4 0 18 -6
20 -60 20 l-60 0 0 -265 0 -265 60 0 60 0 0 170 c0 189 7 218 60 245 36 19 71
19 115 1 57 -24 65 -53 65 -246 l0 -170 61 0 61 0 -4 198 c-3 194 -3 198 -30
244 -41 70 -148 111 -233 89z"/>
        <path d="M7401 1229 c-184 -35 -256 -295 -125 -456 40 -48 119 -83 189 -83 42
0 129 31 141 51 26 43 33 -63 7 -118 -43 -90 -182 -98 -244 -14 -21 28 -27 31
-81 31 l-58 0 6 -28 c4 -15 15 -42 26 -60 75 -125 313 -146 421 -36 62 62 62
61 65 402 l3 312 -60 0 -61 0 0 -32 c0 -29 -1 -30 -17 -16 -49 43 -134 62
-212 47z m145 -120 c76 -36 105 -137 64 -226 -24 -55 -70 -83 -133 -83 -42 0
-53 5 -87 38 -69 65 -77 162 -18 237 24 30 70 54 107 55 14 0 44 -9 67 -21z"/>
        <path d="M6390 965 l0 -265 60 0 60 0 0 265 0 265 -60 0 -60 0 0 -265z"/>
        <path d="M7831 821 c-28 -28 -28 -84 1 -111 63 -59 161 30 110 100 -26 34 -83
39 -111 11z"/>
    </g>
</svg>
