<!-- <svg version="1.0" xmlns="http://www.w3.org/2000/svg" width="901.000000pt" height="215.000000pt" viewBox="0 0 901.000000 215.000000" preserveAspectRatio="xMidYMid meet"> -->
<svg version="1.0"
    xmlns="http://www.w3.org/2000/svg" width="120" height="60" viewBox="0 0 901.000000 215.000000" preserveAspectRatio="xMidYMid meet">
    <metadata>
    </metadata>
    <style >
        <!-- path{
            fill: #0056D2;
        } -->

    @media (prefers-color-scheme: dark) {
        path {
            fill: #000000;         <!-- set icon color for dark mode -->
            opacity: 0.5;
        }
        }

    </style>
    <g transform="translate(0.000000,215.000000) scale(0.100000,-0.100000)" fill="#000000" stroke="none">
        <path d="M885 2083 c-516 -81 -881 -551 -825 -1062 37 -341 232 -622 535 -771
161 -80 229 -95 430 -95 147 0 180 3 248 23 176 51 323 136 443 256 469 472
336 1263 -261 1557 -144 70 -230 91 -400 94 -77 2 -153 1 -170 -2z m375 -113
c300 -86 523 -309 616 -616 24 -78 27 -107 28 -229 0 -114 -3 -155 -21 -220
-84 -308 -300 -534 -603 -630 -112 -36 -305 -46 -422 -22 -284 59 -513 241
-634 503 -105 226 -104 503 1 730 114 249 352 438 625 499 95 21 312 14 410
-15z"/>
        <path d="M778 1511 l-3 -111 -95 54 -95 55 -3 -195 c-1 -107 -1 -282 0 -389
l3 -195 95 55 95 54 5 -110 5 -109 425 245 c234 135 426 249 428 253 2 6 -401
243 -800 470 l-57 33 -3 -110z m393 -213 c165 -95 299 -176 299 -179 0 -6
-563 -333 -594 -345 -14 -5 -16 3 -16 54 l0 61 195 112 c107 61 195 115 195
118 0 3 -87 56 -192 117 l-193 111 -3 62 c-2 33 0 61 4 61 4 0 141 -78 305
-172z m-445 31 l54 -30 0 -180 0 -179 -52 -30 c-29 -16 -56 -30 -60 -30 -5 0
-8 108 -8 240 0 132 3 240 6 240 4 0 31 -14 60 -31z m287 -165 c37 -21 67 -41
67 -44 0 -5 -154 -97 -212 -127 -5 -2 -8 55 -8 127 l0 132 43 -25 c23 -13 72
-42 110 -63z"/>
        <path d="M6137 1346 c-76 -28 -117 -95 -103 -169 13 -69 44 -91 196 -139 55
-17 78 -29 86 -46 42 -86 -97 -122 -207 -54 l-46 29 -27 -33 -27 -34 48 -30
c59 -37 102 -50 173 -50 132 1 214 91 181 201 -15 50 -59 79 -172 113 -48 14
-91 32 -96 38 -22 29 -22 48 2 75 19 23 31 28 69 27 27 -1 65 -11 94 -26 l48
-25 22 33 c12 19 22 36 22 39 0 2 -23 16 -51 30 -63 32 -158 41 -212 21z"/>
        <path d="M7186 1344 c-64 -20 -137 -92 -159 -159 -45 -131 0 -268 110 -332 36
-21 62 -27 123 -31 86 -5 132 6 197 47 l43 26 0 113 0 112 -110 0 -110 0 0
-40 0 -40 65 0 65 0 0 -50 c0 -44 -3 -51 -29 -64 -75 -39 -166 -28 -218 26
-40 42 -53 76 -53 141 0 63 30 121 80 155 30 20 44 23 102 20 51 -3 75 -9 99
-27 l32 -24 28 34 29 34 -25 22 c-55 49 -176 65 -269 37z"/>
        <path d="M2130 1091 l0 -261 45 0 45 0 0 79 0 78 86 6 c156 11 224 66 224 181
0 73 -20 112 -76 147 -36 22 -52 24 -181 27 l-143 4 0 -261z m267 159 c47 -30
56 -94 19 -137 -23 -26 -31 -28 -110 -32 l-86 -3 0 97 0 98 78 -5 c42 -2 87
-11 99 -18z"/>
        <path d="M2760 1090 l0 -260 185 0 185 0 0 40 0 40 -140 0 -140 0 0 220 0 220
-45 0 -45 0 0 -260z"/>
        <path d="M3340 1163 c0 -161 3 -194 19 -228 36 -78 102 -115 204 -115 92 0
155 33 193 103 28 51 29 55 32 240 l4 187 -50 0 -51 0 -3 -191 -3 -191 -32
-28 c-60 -54 -151 -48 -197 13 -19 26 -21 44 -24 213 l-3 184 -45 0 -44 0 0
-187z"/>
        <path d="M4050 1091 l0 -261 45 0 45 0 0 90 0 90 58 0 57 -1 60 -87 61 -87 57
-3 57 -3 -65 92 c-36 51 -65 95 -65 98 0 3 17 15 37 26 51 27 76 74 76 140 0
66 -28 115 -81 141 -30 16 -66 20 -189 22 l-153 3 0 -260z m275 165 c59 -25
73 -84 31 -133 -23 -26 -29 -28 -120 -31 l-96 -4 0 91 0 91 75 0 c43 0 90 -6
110 -14z"/>
        <path d="M4795 1098 c-60 -138 -111 -255 -113 -260 -2 -4 19 -8 46 -8 l49 0
24 60 24 60 125 0 125 0 24 -60 24 -60 50 0 c35 0 48 4 44 13 -2 6 -53 123
-112 260 l-108 247 -46 0 -46 0 -110 -252z m198 44 c20 -48 37 -93 37 -100 0
-8 -23 -12 -80 -12 -57 0 -80 4 -80 12 0 17 73 188 80 188 3 0 22 -39 43 -88z"/>
        <path d="M5450 1090 l0 -260 185 0 185 0 0 40 0 40 -140 0 -140 0 0 220 0 220
-45 0 -45 0 0 -260z"/>
        <path d="M6670 1090 l0 -260 45 0 45 0 0 260 0 260 -45 0 -45 0 0 -260z"/>
        <path d="M7750 1090 l0 -260 50 0 50 0 0 110 0 111 123 -3 122 -3 3 -107 3
-108 44 0 45 0 0 260 0 260 -45 0 -44 0 -3 -107 -3 -108 -122 -3 -123 -3 0
111 0 110 -50 0 -50 0 0 -260z"/>
        <path d="M8420 1305 l0 -45 85 0 85 0 0 -215 0 -215 45 0 45 0 0 215 0 214 83
3 82 3 3 43 3 42 -215 0 -216 0 0 -45z"/>
    </g>
</svg>
