<svg width="450" height="40" viewBox="0 0 112 40" fill="none"
    xmlns="http://www.w3.org/2000/svg">
    <g clip-path="url(#clip0_1040_6992)">
        <path fill-rule="evenodd" clip-rule="evenodd" d="M0 4.62956e-05H10.5692C11.9895 -0.00285488 13.4066 0.130605 14.8004 0.398523C16.0847 0.635742 17.3155 1.09613 18.4349 1.75803C19.4914 2.40766 20.3638 3.30862 20.9713 4.37743C21.645 5.6678 21.9697 7.10653 21.9142 8.55557C21.9814 10.5235 21.3341 12.4509 20.088 13.9936C18.7653 15.5127 16.8926 16.4668 14.8661 16.654L22.9467 29.8858H16.3819L9.36964 17.2166H5.4129V29.8858H0V4.62956e-05ZM9.62626 12.6575C10.3961 12.6575 11.1719 12.6224 11.9478 12.5521C12.6779 12.4905 13.3942 12.3206 14.0724 12.0481C14.7012 11.7908 15.2446 11.3667 15.6419 10.8234C16.0791 10.135 16.2876 9.33024 16.2387 8.52041C16.2712 7.77791 16.0757 7.04296 15.6777 6.41083C15.3099 5.89513 14.8038 5.48949 14.2156 5.23884C13.583 4.95831 12.9111 4.77263 12.2223 4.688C11.5171 4.60733 10.8077 4.56625 10.0977 4.56495H5.4129V12.6575H9.62626ZM27.5897 21.5178C27.6363 22.1952 27.8185 22.857 28.1257 23.4653C28.4329 24.0736 28.8591 24.6165 29.3801 25.063C30.4315 25.9135 31.7602 26.363 33.122 26.3288C34.2686 26.3734 35.4052 26.1035 36.4043 25.5494C37.2793 25.0271 38.0582 24.3634 38.7079 23.5863L42.3722 26.3288C41.309 27.6816 39.9208 28.7547 38.332 29.4521C36.8496 30.0669 35.2563 30.3818 33.6471 30.378C32.1439 30.3909 30.6511 30.1327 29.2428 29.6162C27.9156 29.1523 26.7004 28.424 25.6734 27.4771C24.6464 26.5302 23.8298 25.3852 23.2749 24.1137C22.6707 22.7358 22.3697 21.2481 22.3916 19.7481C22.3698 18.2461 22.6707 16.7565 23.2749 15.3765C23.8306 14.1117 24.6428 12.9712 25.6621 12.0246C26.6958 11.0781 27.9138 10.3466 29.2428 9.87404C30.6436 9.36041 32.1281 9.10224 33.6233 9.11225C34.9855 9.09048 36.3379 9.34172 37.5979 9.8506C38.7657 10.3259 39.8084 11.0552 40.6475 11.9836C41.5379 12.986 42.2101 14.1566 42.6229 15.4234C43.1213 16.9369 43.3613 18.521 43.3331 20.1114V21.506L27.5897 21.5178ZM38.1589 17.7205C38.1789 17.0708 38.0638 16.424 37.8206 15.8195C37.5774 15.2149 37.2112 14.6654 36.7445 14.2045C35.6958 13.2884 34.3207 12.8165 32.9191 12.8919C32.2473 12.8605 31.5759 12.9615 30.9445 13.1889C30.3131 13.4164 29.7345 13.7657 29.2428 14.2163C28.3019 15.1704 27.719 16.4102 27.5897 17.7322L38.1589 17.7205ZM47.6777 9.62206H42.05L50.4707 29.8858H55.9731L63.823 10.2875L71.9672 29.8858H77.4696L85.3271 10.2827L93.8277 30.0381L92.837 32.4465C92.6102 32.97 92.3954 33.4271 92.1925 33.8178C92.0131 34.1784 91.7547 34.4957 91.4359 34.7469C91.1172 34.9981 90.7458 35.1771 90.3484 35.271C89.8267 35.3937 89.2913 35.4508 88.7549 35.441C88.3012 35.4422 87.8487 35.393 87.4062 35.2945C86.9755 35.2006 86.551 35.0812 86.135 34.937L85.4905 39.4902C86.7808 39.8303 88.1112 40.0017 89.4472 40C90.4406 40.0182 91.4315 39.8958 92.3894 39.6367C93.1673 39.4199 93.8907 39.0467 94.514 38.5409C95.1363 38.0274 95.6668 37.4154 96.0835 36.7302C96.5736 35.9359 96.991 35.1005 97.3308 34.2338L107.088 9.62206H101.717L96.561 23.6859H96.4715L90.7124 9.62206H85.5919H85.0429H80.3043L74.7601 23.7973H74.6766L69.1742 9.62206H64.0895H63.5464H58.8079L53.2637 23.7973H53.1802L47.6777 9.62206Z" fill="#7f7f7f"/>
        <path d="M105.126 26.9205C105.117 26.4822 105.202 26.047 105.376 25.6431C105.55 25.2393 105.808 24.8759 106.134 24.5766C106.451 24.2611 106.829 24.0122 107.247 23.845C107.664 23.6778 108.112 23.5957 108.563 23.6038C109.45 23.6007 110.305 23.9321 110.95 24.5297C111.28 24.8142 111.542 25.1652 111.72 25.5586C111.899 25.952 111.988 26.3787 111.983 26.8092C111.991 27.248 111.905 27.6835 111.73 28.0874C111.555 28.4912 111.296 28.8544 110.968 29.1532C110.652 29.4676 110.275 29.7159 109.858 29.8831C109.442 30.0503 108.995 30.1329 108.545 30.1259C108.095 30.1261 107.649 30.0406 107.232 29.874C106.829 29.7114 106.457 29.4814 106.134 29.1942C105.816 28.9119 105.56 28.569 105.382 28.1863C105.205 27.7875 105.117 27.3557 105.126 26.9205Z" fill="#FF4D00"/>
    </g>
    <defs>
        <clipPath id="clip0_1040_6992">
            <rect width="112" height="40" fill="white"/>
        </clipPath>
    </defs>
</svg>
